<svg version="1" xmlns="http://www.w3.org/2000/svg" width="682.667" height="682.667" viewBox="0 0 512.000000 512.000000"><path d="M255.1 2.6c-8 2.1-14.4 6-20.5 12.4-8.7 9-12.6 18.7-12.6 31 0 19.9 12.5 36.7 32.3 43.3 1.6.6 1.7 2.8 1.7 27v26.4l-3.8 1.1c-5.5 1.7-15.2 8.2-19 12.8-4.6 5.5-9.1 15-10.1 21.2-.4 2.9-1.1 5.6-1.5 6-.4.4-11.7 2.5-25.2 4.8l-24.4 4.1-2.9-5.1c-3.9-7-11.8-14.1-19.9-17.9-6.4-3-7.3-3.2-18.8-3.2-11.8 0-12.1 0-19.5 3.7-33.5 16.6-33.6 64-.2 80.5 25.8 12.8 57.2-2.2 63.6-30.3l1.3-5.8 25.5-4.3 25.4-4.3 1.5 2.2c6.9 10.1 14.3 16.4 23.2 19.6l4.8 1.7v53.2l-3.8 1.1c-5.5 1.7-15.2 8.2-19 12.8-13.2 15.9-14.4 37-3 54.6l4 6.3-15.8 31.7-15.9 31.8h-5c-21.3 0-40.5 16.6-43.8 37.9-5.6 36.5 32.5 63.8 65.5 47 5.4-2.8 14.3-11.3 17.5-16.7 7.9-13.4 8.3-30.5 1.1-44.7-1.2-2.2-4.7-6.7-8-10.1l-5.9-6.2 14.8-29.6 14.8-29.6 4.5.7c5.6.8 13.5.8 18.3-.1l3.7-.7 15.7 31.4 15.7 31.5-3.8 4.3c-19.5 22.9-12.2 57.7 14.8 70.5 22.3 10.6 48.8 1.1 59.8-21.3 3.2-6.6 3.3-7.2 3.3-19.3 0-12.1-.1-12.7-3.3-19.3-8.2-16.7-25.3-26.7-43.6-25.5l-7.3.5-16.1-32.3-16.1-32.3 2.2-2.8c6.7-8.1 9.7-17 9.7-28.4 0-13.2-4.4-23.5-13.8-32.5-4.2-4.1-15.3-10.4-18.1-10.4-.8 0-1.1-7.9-1.1-27s.3-27 1.1-27c.6 0 3.9-1.3 7.3-2.9 6.8-3.3 14.1-9.8 18.2-16.3 6.7-10.5 8.4-26.4 4.1-39l-2.3-6.6 26.1-26.7 26-26.7 8 2.7c7.1 2.4 9.1 2.7 17.6 2.3 8-.4 10.7-1 16-3.5 28.3-13.3 35.2-50.5 13.5-72.6-21.8-22.1-58.5-15.9-72.4 12.2-3.6 7.4-3.7 7.7-3.7 19.5 0 11.1.2 12.6 2.7 17.9l2.8 5.9-26.3 26.4-26.2 26.4-5-2.5c-2.7-1.3-5.6-2.5-6.2-2.5-1 0-1.3-6-1.3-26.5 0-24.4.1-26.6 1.8-27.1 11.1-3.7 22.9-13.8 27.5-23.6 8-16.9 5.1-36.6-7.3-50-11.4-12.5-28.6-17.6-44.9-13.2zm21.5 157.1c7 2.4 14.7 10.3 16.8 17.3 3.4 11.4 1.2 20.6-6.9 28.6-6.4 6.4-13 8.9-21.9 8.2-23.5-1.9-34.2-30.2-17.8-47.1 7.9-8.3 18.7-10.8 29.8-7zm0 140c7 2.4 14.7 10.3 16.8 17.3 3.4 11.4 1.2 20.6-6.9 28.6-6.4 6.4-13 8.9-21.9 8.2-23.5-1.9-34.2-30.2-17.8-47.1 7.9-8.3 18.7-10.8 29.8-7z"/></svg>